<?xml version="1.0" encoding="UTF-8" standalone="no"?><!DOCTYPE svg PUBLIC "-//W3C//DTD SVG 1.1//EN" "http://www.w3.org/Graphics/SVG/1.1/DTD/svg11.dtd"><svg width="100%" height="100%" viewBox="0 0 1024 1024" version="1.1" xmlns="http://www.w3.org/2000/svg" xmlns:xlink="http://www.w3.org/1999/xlink" xml:space="preserve" xmlns:serif="http://www.serif.com/" style="fill-rule:evenodd;clip-rule:evenodd;stroke-linecap:round;stroke-linejoin:round;stroke-miterlimit:1.5;"><path d="M936.192,469.946l0,442.093c0,54.601 -44.329,98.93 -98.93,98.93l-666.406,-0c-54.601,-0 -98.93,-44.329 -98.93,-98.93l-0,-442.093c-0,-54.601 44.329,-98.93 98.93,-98.93l666.406,-0c54.601,-0 98.93,44.329 98.93,98.93Z" style="fill:url(#_Linear1);"/><path d="M926.64,454.423l-0,442.093c-0,54.601 -44.329,98.93 -98.93,98.93l-666.407,-0c-54.601,-0 -98.93,-44.329 -98.93,-98.93l0,-442.093c0,-54.601 44.329,-98.93 98.93,-98.93l666.407,-0c54.601,-0 98.93,44.329 98.93,98.93Z" style="fill:#fff;"/><g><clipPath id="_clip2"><path d="M926.64,454.423l-0,442.093c-0,54.601 -44.329,98.93 -98.93,98.93l-666.407,-0c-54.601,-0 -98.93,-44.329 -98.93,-98.93l0,-442.093c0,-54.601 44.329,-98.93 98.93,-98.93l666.407,-0c54.601,-0 98.93,44.329 98.93,98.93Z"/></clipPath><g clip-path="url(#_clip2)"><path d="M348.282,297.075l-219.523,711.432l-229.123,-70.7l219.522,-711.432l229.124,70.7Z" style="fill:#144485;"/><path d="M545.94,271.782l-239.831,777.245l-131.32,-40.52l239.83,-777.246l131.321,40.521Z" style="fill:#144485;"/><path d="M760.927,279.472l-239.831,777.246l-156.243,-48.211l239.83,-777.246l156.244,48.211Z" style="fill:#155ab1;"/><path d="M932.329,265.276l-239.83,777.245l-110.235,-34.014l239.831,-777.246l110.234,34.015Z" style="fill:#ecae56;"/><path d="M1080.53,464.545l-182.723,592.173l-156.244,-48.211l182.724,-592.173l156.243,48.211Z" style="fill:#b81f21;"/></g></g><g id="Clap-Tilted" serif:id="Clap Tilted"><path d="M961.361,151.992l-27.658,180.542c-1.908,12.455 -13.569,21.019 -26.025,19.111l-809.164,-123.957c-12.456,-1.908 -21.019,-13.569 -19.111,-26.025l17.25,-112.606c7.652,-49.95 54.418,-84.291 104.368,-76.639l741.229,113.549c12.456,1.908 21.019,13.569 19.111,26.025Z" style="fill:url(#_Linear3);"/><g id="Stripes"><clipPath id="_clip4"><path d="M961.361,151.992l-27.658,180.542c-1.908,12.455 -13.569,21.019 -26.025,19.111l-809.164,-123.957c-12.456,-1.908 -21.019,-13.569 -19.111,-26.025l17.25,-112.606c7.652,-49.95 54.418,-84.291 104.368,-76.639l741.229,113.549c12.456,1.908 21.019,13.569 19.111,26.025Z"/></clipPath><g clip-path="url(#_clip4)"><path d="M420.08,-65.918l-361.25,402.323l-55.958,-50.245l361.25,-402.323l55.958,50.245Z" style="fill:#fff;"/><path d="M704.67,29.524l-289.474,322.387l-55.958,-50.245l289.474,-322.387l55.958,50.245Z" style="fill:#fff;"/><path d="M548.361,-2.59l-340.867,379.623l-55.958,-50.245l340.867,-379.623l55.958,50.245Z" style="fill:#fff;"/><path d="M939.008,-25.263l-390.647,435.062l-55.958,-50.244l390.647,-435.063l55.958,50.245Z" style="fill:#fff;"/><path d="M1017.58,105.172l-284.935,317.332l-55.958,-50.245l284.936,-317.332l55.957,50.245Z" style="fill:#fff;"/></g></g><path d="M961.361,151.992l-27.658,180.542c-1.908,12.455 -13.569,21.019 -26.025,19.111l-809.164,-123.957c-12.456,-1.908 -21.019,-13.569 -19.111,-26.025l17.25,-112.606c7.652,-49.95 54.418,-84.291 104.368,-76.639l741.229,113.549c12.456,1.908 21.019,13.569 19.111,26.025Zm-7.908,-1.212c1.239,-8.091 -4.323,-15.666 -12.414,-16.906l-741.23,-113.549c-45.585,-6.983 -88.265,24.357 -95.248,69.943l-17.25,112.607c-1.24,8.091 4.323,15.666 12.414,16.906l809.165,123.956c8.091,1.239 15.666,-4.323 16.906,-12.414l27.657,-180.543Z" style="fill:url(#_Linear5);"/></g><path id="PlayIcon" d="M720.501,690.992l-355.648,220.627l-0,-441.254l355.648,220.627Z" style="fill:#fff;stroke:url(#_Linear6);stroke-width:10.02px;"/><defs><linearGradient id="_Linear1" x1="0" y1="0" x2="1" y2="0" gradientUnits="userSpaceOnUse" gradientTransform="matrix(-29.26,-153.84,113.912,-21.6658,940.306,995.446)"><stop offset="0" style="stop-color:#333;stop-opacity:1"/><stop offset="1" style="stop-color:#0d0d0d;stop-opacity:1"/></linearGradient><linearGradient id="_Linear3" x1="0" y1="0" x2="1" y2="0" gradientUnits="userSpaceOnUse" gradientTransform="matrix(17.4935,-100.77,26.6202,4.62121,494.506,282.401)"><stop offset="0" style="stop-color:#333;stop-opacity:1"/><stop offset="1" style="stop-color:#0d0d0d;stop-opacity:1"/></linearGradient><linearGradient id="_Linear5" x1="0" y1="0" x2="1" y2="0" gradientUnits="userSpaceOnUse" gradientTransform="matrix(15.2026,-119.061,31.452,4.01603,932.329,361.324)"><stop offset="0" style="stop-color:#333;stop-opacity:1"/><stop offset="1" style="stop-color:#0d0d0d;stop-opacity:1"/></linearGradient><linearGradient id="_Linear6" x1="0" y1="0" x2="1" y2="0" gradientUnits="userSpaceOnUse" gradientTransform="matrix(-8.10573e-14,441.253,-355.648,-6.53312e-14,542.677,470.365)"><stop offset="0" style="stop-color:#0d0d0d;stop-opacity:1"/><stop offset="1" style="stop-color:#4d4d4d;stop-opacity:1"/></linearGradient></defs></svg>